<svg xmlns="http://www.w3.org/2000/svg" viewBox="0 0 64 64">
  <defs>
    <radialGradient id="bg" cx="50%" cy="35%" r="70%">
      <stop offset="0%" stop-color="#1e2d6b"/>
      <stop offset="60%" stop-color="#0b1437"/>
      <stop offset="100%" stop-color="#070d24"/>
    </radialGradient>
    <linearGradient id="gold" x1="0%" y1="0%" x2="0%" y2="100%">
      <stop offset="0%" stop-color="#fde68a"/>
      <stop offset="50%" stop-color="#facc15"/>
      <stop offset="100%" stop-color="#d97706"/>
    </linearGradient>
    <filter id="glow" x="-50%" y="-50%" width="200%" height="200%">
      <feGaussianBlur stdDeviation="1.2" result="b"/>
      <feMerge><feMergeNode in="b"/><feMergeNode in="SourceGraphic"/></feMerge>
    </filter>
  </defs>
  <rect width="64" height="64" rx="12" fill="url(#bg)"/>
  <g filter="url(#glow)" fill="url(#gold)" transform="translate(32 32.8) scale(1.3) translate(-32 -32.8)">
    <path d="M22 24c0-6 4.5-10 10.2-10 5.8 0 10 3.6 10 8.7 0 4-2.1 6.4-5.6 8.6-2.6 1.7-3.6 3-3.6 5.4v1.8h-6v-2.4c0-3.6 1.6-5.7 5-7.9 2.2-1.4 3.2-2.4 3.2-4.4 0-2.1-1.6-3.6-3.9-3.6-2.5 0-4.1 1.6-4.3 4.4h-5z"/>
    <circle cx="32" cy="48" r="3.6"/>
  </g>
</svg>
